<?xml version="1.0" encoding="UTF-8"?>
<svg version="1.1" xmlns="http://www.w3.org/2000/svg" width="370" height="107">
<path d="M0 0 C1.23363281 -0.02900391 2.46726563 -0.05800781 3.73828125 -0.08789062 C11.56906227 -0.1419821 17.36033603 0.87915234 24.375 4.3125 C26.01759181 4.98711393 27.66307577 5.65476791 29.3125 6.3125 C32.68316848 7.80530924 34.35371711 9.16828217 36.375 12.3125 C37.365 12.3125 38.355 12.3125 39.375 12.3125 C41.0625 13.6875 41.0625 13.6875 42.375 15.3125 C42.375 15.9725 42.375 16.6325 42.375 17.3125 C43.035 17.3125 43.695 17.3125 44.375 17.3125 C45.8828125 19.17578125 45.8828125 19.17578125 47.5 21.625 C48.03882812 22.42550781 48.57765625 23.22601562 49.1328125 24.05078125 C50.375 26.3125 50.375 26.3125 50.375 29.3125 C51.035 29.6425 51.695 29.9725 52.375 30.3125 C52.7890625 32.59765625 52.7890625 32.59765625 53 35.375 C53.11214844 36.75365234 53.11214844 36.75365234 53.2265625 38.16015625 C53.27554688 38.87042969 53.32453125 39.58070312 53.375 40.3125 C54.86 40.8075 54.86 40.8075 56.375 41.3125 C56.375 48.5725 56.375 55.8325 56.375 63.3125 C55.385 63.8075 55.385 63.8075 54.375 64.3125 C53.84379778 66.18921992 53.39920901 68.09084164 53 70 C52.1399824 73.7326537 51.40719413 76.77436384 49.125 79.875 C48.5475 80.679375 47.97 81.48375 47.375 82.3125 C47.705 83.3025 48.035 84.2925 48.375 85.3125 C47.715 85.3125 47.055 85.3125 46.375 85.3125 C46.23964844 86.01117188 46.10429688 86.70984375 45.96484375 87.4296875 C44.22747454 94.77449384 44.22747454 94.77449384 41.6171875 96.421875 C39.6875 96.9375 39.6875 96.9375 36.375 97.3125 C36.375 98.3025 36.375 99.2925 36.375 100.3125 C35.055 100.6425 33.735 100.9725 32.375 101.3125 C32.375 102.3025 32.375 103.2925 32.375 104.3125 C28.29493039 105.01866589 25.35392219 105.30723055 21.375 104.3125 C20.385 104.9725 19.395 105.6325 18.375 106.3125 C12.62701259 108.28755856 6.05325863 107.53906427 0.0625 107.5625 C-1.89719727 107.5934375 -1.89719727 107.5934375 -3.89648438 107.625 C-10.65163205 107.65247391 -15.62976633 107.46151163 -21.625 104.3125 C-22.615 104.8075 -22.615 104.8075 -23.625 105.3125 C-23.625 104.3225 -23.625 103.3325 -23.625 102.3125 C-24.98625 102.126875 -24.98625 102.126875 -26.375 101.9375 C-31.26710526 100.99671053 -31.26710526 100.99671053 -33.625 99.3125 C-34.30632451 97.65177151 -34.97242127 95.984733 -35.625 94.3125 C-37.5850281 92.67573743 -37.5850281 92.67573743 -39.625 91.3125 C-40.285 90.3225 -40.945 89.3325 -41.625 88.3125 C-42.615 87.9825 -43.605 87.6525 -44.625 87.3125 C-45.12 84.8375 -45.12 84.8375 -45.625 82.3125 C-46.615 81.9825 -47.605 81.6525 -48.625 81.3125 C-49.5390625 79.203125 -49.5390625 79.203125 -50.25 76.5625 C-50.48976562 75.70140625 -50.72953125 74.8403125 -50.9765625 73.953125 C-52.70636456 66.90887083 -52.84544519 60.13262723 -52.86523438 52.91040039 C-52.87498629 50.75303243 -52.90606975 48.59659987 -52.9375 46.43945312 C-52.94402681 45.06250562 -52.94927855 43.68555135 -52.953125 42.30859375 C-52.9624707 41.06263428 -52.97181641 39.8166748 -52.98144531 38.53295898 C-52.59858729 35.07386295 -51.92733445 33.83245536 -49.625 31.3125 C-49.295 30.6525 -48.965 29.9925 -48.625 29.3125 C-47.965 29.3125 -47.305 29.3125 -46.625 29.3125 C-46.52832031 28.7453125 -46.43164062 28.178125 -46.33203125 27.59375 C-45.46752051 24.80438939 -44.13333914 23.08952367 -42.3125 20.8125 C-41.71824219 20.0596875 -41.12398437 19.306875 -40.51171875 18.53125 C-38.63845452 16.32832229 -36.76740402 14.25612426 -34.625 12.3125 C-33.965 12.3125 -33.305 12.3125 -32.625 12.3125 C-32.955 11.3225 -33.285 10.3325 -33.625 9.3125 C-32.5421875 9.1578125 -32.5421875 9.1578125 -31.4375 9 C-27.61715701 8.06613838 -24.78450682 6.47200682 -22 3.6875 C-16.88745951 -1.42504049 -6.52810298 0.05021618 0 0 Z M41.375 17.3125 C41.705 18.3025 42.035 19.2925 42.375 20.3125 C42.375 19.3225 42.375 18.3325 42.375 17.3125 C42.045 17.3125 41.715 17.3125 41.375 17.3125 Z M49.375 29.3125 C50.375 31.3125 50.375 31.3125 50.375 31.3125 Z M-51.625 36.3125 C-50.625 38.3125 -50.625 38.3125 -50.625 38.3125 Z M53.375 41.3125 C54.375 43.3125 54.375 43.3125 54.375 43.3125 Z M54.375 45.3125 C55.375 47.3125 55.375 47.3125 55.375 47.3125 Z M54.375 56.3125 C55.375 59.3125 55.375 59.3125 55.375 59.3125 Z " fill="#F9F9F9" transform="translate(52.625,-0.3125)"/>
<path d="M0 0 C1.23363281 -0.02900391 2.46726563 -0.05800781 3.73828125 -0.08789062 C11.56906227 -0.1419821 17.36033603 0.87915234 24.375 4.3125 C26.01759181 4.98711393 27.66307577 5.65476791 29.3125 6.3125 C32.68316848 7.80530924 34.35371711 9.16828217 36.375 12.3125 C37.365 12.3125 38.355 12.3125 39.375 12.3125 C41.0625 13.6875 41.0625 13.6875 42.375 15.3125 C42.375 15.9725 42.375 16.6325 42.375 17.3125 C43.035 17.3125 43.695 17.3125 44.375 17.3125 C45.8828125 19.17578125 45.8828125 19.17578125 47.5 21.625 C48.03882812 22.42550781 48.57765625 23.22601562 49.1328125 24.05078125 C50.375 26.3125 50.375 26.3125 50.375 29.3125 C51.035 29.6425 51.695 29.9725 52.375 30.3125 C52.7890625 32.59765625 52.7890625 32.59765625 53 35.375 C53.11214844 36.75365234 53.11214844 36.75365234 53.2265625 38.16015625 C53.27554688 38.87042969 53.32453125 39.58070312 53.375 40.3125 C54.86 40.8075 54.86 40.8075 56.375 41.3125 C56.375 48.5725 56.375 55.8325 56.375 63.3125 C55.385 63.8075 55.385 63.8075 54.375 64.3125 C53.84379778 66.18921992 53.39920901 68.09084164 53 70 C52.1399824 73.7326537 51.40719413 76.77436384 49.125 79.875 C48.5475 80.679375 47.97 81.48375 47.375 82.3125 C47.705 83.3025 48.035 84.2925 48.375 85.3125 C47.715 85.3125 47.055 85.3125 46.375 85.3125 C46.23964844 86.01117188 46.10429688 86.70984375 45.96484375 87.4296875 C44.22747454 94.77449384 44.22747454 94.77449384 41.6171875 96.421875 C39.6875 96.9375 39.6875 96.9375 36.375 97.3125 C36.375 98.3025 36.375 99.2925 36.375 100.3125 C35.055 100.6425 33.735 100.9725 32.375 101.3125 C32.375 102.3025 32.375 103.2925 32.375 104.3125 C28.29493039 105.01866589 25.35392219 105.30723055 21.375 104.3125 C20.385 104.9725 19.395 105.6325 18.375 106.3125 C12.62701259 108.28755856 6.05325863 107.53906427 0.0625 107.5625 C-1.89719727 107.5934375 -1.89719727 107.5934375 -3.89648438 107.625 C-10.65163205 107.65247391 -15.62976633 107.46151163 -21.625 104.3125 C-22.615 104.8075 -22.615 104.8075 -23.625 105.3125 C-23.625 104.3225 -23.625 103.3325 -23.625 102.3125 C-24.98625 102.126875 -24.98625 102.126875 -26.375 101.9375 C-31.26710526 100.99671053 -31.26710526 100.99671053 -33.625 99.3125 C-34.30632451 97.65177151 -34.97242127 95.984733 -35.625 94.3125 C-37.5850281 92.67573743 -37.5850281 92.67573743 -39.625 91.3125 C-40.285 90.3225 -40.945 89.3325 -41.625 88.3125 C-42.615 87.9825 -43.605 87.6525 -44.625 87.3125 C-45.12 84.8375 -45.12 84.8375 -45.625 82.3125 C-46.615 81.9825 -47.605 81.6525 -48.625 81.3125 C-49.5390625 79.203125 -49.5390625 79.203125 -50.25 76.5625 C-50.48976562 75.70140625 -50.72953125 74.8403125 -50.9765625 73.953125 C-52.70636456 66.90887083 -52.84544519 60.13262723 -52.86523438 52.91040039 C-52.87498629 50.75303243 -52.90606975 48.59659987 -52.9375 46.43945312 C-52.94402681 45.06250562 -52.94927855 43.68555135 -52.953125 42.30859375 C-52.9624707 41.06263428 -52.97181641 39.8166748 -52.98144531 38.53295898 C-52.59858729 35.07386295 -51.92733445 33.83245536 -49.625 31.3125 C-49.295 30.6525 -48.965 29.9925 -48.625 29.3125 C-47.965 29.3125 -47.305 29.3125 -46.625 29.3125 C-46.52832031 28.7453125 -46.43164062 28.178125 -46.33203125 27.59375 C-45.46752051 24.80438939 -44.13333914 23.08952367 -42.3125 20.8125 C-41.71824219 20.0596875 -41.12398437 19.306875 -40.51171875 18.53125 C-38.63845452 16.32832229 -36.76740402 14.25612426 -34.625 12.3125 C-33.965 12.3125 -33.305 12.3125 -32.625 12.3125 C-32.955 11.3225 -33.285 10.3325 -33.625 9.3125 C-32.5421875 9.1578125 -32.5421875 9.1578125 -31.4375 9 C-27.61715701 8.06613838 -24.78450682 6.47200682 -22 3.6875 C-16.88745951 -1.42504049 -6.52810298 0.05021618 0 0 Z M-29.625 28.3125 C-37.99725504 38.41938716 -39.55120692 48.88409619 -38.4140625 61.6875 C-36.8950456 71.13916071 -30.22556494 80.61562796 -22.625 86.3125 C-12.31741564 92.36528922 -2.931575 94.92984293 9.02734375 92.8515625 C20.76183208 89.70012014 29.52577785 82.99338473 35.98046875 72.76953125 C40.67673567 63.44277145 41.57109392 51.25333099 38.77880859 41.15673828 C34.15389996 28.60779907 26.28695046 22.23328022 14.58203125 16.6953125 C-1.78601202 9.63771528 -18.08211842 15.74084109 -29.625 28.3125 Z M41.375 17.3125 C41.705 18.3025 42.035 19.2925 42.375 20.3125 C42.375 19.3225 42.375 18.3325 42.375 17.3125 C42.045 17.3125 41.715 17.3125 41.375 17.3125 Z M49.375 29.3125 C50.375 31.3125 50.375 31.3125 50.375 31.3125 Z M-51.625 36.3125 C-50.625 38.3125 -50.625 38.3125 -50.625 38.3125 Z M53.375 41.3125 C54.375 43.3125 54.375 43.3125 54.375 43.3125 Z M54.375 45.3125 C55.375 47.3125 55.375 47.3125 55.375 47.3125 Z M54.375 56.3125 C55.375 59.3125 55.375 59.3125 55.375 59.3125 Z " fill="#F0EFF0" transform="translate(52.625,-0.3125)"/>
<path d="M0 0 C1.28245605 0.01981934 2.56491211 0.03963867 3.88623047 0.06005859 C4.59063263 0.06856842 5.29503479 0.07707825 6.02078247 0.08584595 C8.34858771 0.11687405 10.67586079 0.16267664 13.00341797 0.20849609 C14.61766553 0.23231326 16.23192376 0.25541727 17.84619141 0.27783203 C22.01000003 0.3402763 26.17283766 0.42731532 30.3359375 0.52587891 C32.05590061 0.56485637 33.77596481 0.59956856 35.49609375 0.63037109 C38.01706494 0.6757344 40.53746564 0.73361794 43.05810547 0.79443359 C43.82879364 0.8059848 44.59948181 0.81753601 45.39352417 0.82943726 C50.4524735 0.97121517 51.62572798 1.83080611 55.12841797 5.33349609 C57.74302683 9.34256302 57.53781813 11.47523756 57.00341797 16.20849609 C55.50341797 18.20849609 55.50341797 18.20849609 54.00341797 19.20849609 C54.49841797 20.72443359 54.49841797 20.72443359 55.00341797 22.27099609 C56.07343118 25.9632952 56.16045952 29.36097817 56.00341797 33.20849609 C56.66341797 33.20849609 57.32341797 33.20849609 58.00341797 33.20849609 C58.00341797 31.55849609 58.00341797 29.90849609 58.00341797 28.20849609 C58.66341797 28.53849609 59.32341797 28.86849609 60.00341797 29.20849609 C60.03234654 25.250178 60.05019224 21.29188693 60.06591797 17.33349609 C60.07848633 15.64160156 60.07848633 15.64160156 60.09130859 13.91552734 C60.09614258 12.30097656 60.09614258 12.30097656 60.10107422 10.65380859 C60.10892944 9.16131592 60.10892944 9.16131592 60.11694336 7.63867188 C60.16735947 5.19888836 60.16735947 5.19888836 59.00341797 3.20849609 C63.29341797 3.20849609 67.58341797 3.20849609 72.00341797 3.20849609 C72.49841797 4.19849609 72.49841797 4.19849609 73.00341797 5.20849609 C73.00341797 4.54849609 73.00341797 3.88849609 73.00341797 3.20849609 C76.96161408 3.12171307 80.91956731 3.06817876 84.87841797 3.02099609 C86.00634766 2.99585938 87.13427734 2.97072266 88.29638672 2.94482422 C89.37275391 2.93515625 90.44912109 2.92548828 91.55810547 2.91552734 C93.05059814 2.89196167 93.05059814 2.89196167 94.57324219 2.86791992 C95.3752002 2.98031006 96.1771582 3.0927002 97.00341797 3.20849609 C97.99341797 4.69349609 97.99341797 4.69349609 99.00341797 6.20849609 C99.33341797 5.54849609 99.66341797 4.88849609 100.00341797 4.20849609 C101.32341797 4.20849609 102.64341797 4.20849609 104.00341797 4.20849609 C104.33341797 3.87849609 104.66341797 3.54849609 105.00341797 3.20849609 C107.35655352 3.13577868 109.71175465 3.12478742 112.06591797 3.14599609 C113.35626953 3.15501953 114.64662109 3.16404297 115.97607422 3.17333984 C116.97509766 3.18494141 117.97412109 3.19654297 119.00341797 3.20849609 C119.00341797 6.17849609 119.00341797 9.14849609 119.00341797 12.20849609 C118.34341797 12.20849609 117.68341797 12.20849609 117.00341797 12.20849609 C117.27882501 16.02663057 117.27882501 16.02663057 119.00341797 19.20849609 C119.33341797 20.19849609 119.66341797 21.18849609 120.00341797 22.20849609 C120.33341797 22.86849609 120.66341797 23.52849609 121.00341797 24.20849609 C121.46672732 30.46317235 121.46672732 30.46317235 119.56591797 33.52099609 C119.05029297 34.07787109 118.53466797 34.63474609 118.00341797 35.20849609 C117.67341797 35.86849609 117.34341797 36.52849609 117.00341797 37.20849609 C111.00397354 38.8363541 105.8309326 38.00972789 100.00341797 36.20849609 C100.00341797 30.20849609 100.00341797 24.20849609 100.00341797 18.20849609 C100.66341797 18.20849609 101.32341797 18.20849609 102.00341797 18.20849609 C100.35341797 14.90849609 98.70341797 11.60849609 97.00341797 8.20849609 C96.01341797 13.48849609 95.02341797 18.76849609 94.00341797 24.20849609 C91.03341797 23.87849609 88.06341797 23.54849609 85.00341797 23.20849609 C85.00341797 25.84849609 85.00341797 28.48849609 85.00341797 31.20849609 C87.64341797 31.20849609 90.28341797 31.20849609 93.00341797 31.20849609 C93.00341797 29.55849609 93.00341797 27.90849609 93.00341797 26.20849609 C93.99341797 26.20849609 94.98341797 26.20849609 96.00341797 26.20849609 C96.33341797 29.50849609 96.66341797 32.80849609 97.00341797 36.20849609 C95.77365234 36.19689453 94.54388672 36.18529297 93.27685547 36.17333984 C91.64404449 36.16395587 90.01123187 36.15485632 88.37841797 36.14599609 C87.57017578 36.13761719 86.76193359 36.12923828 85.92919922 36.12060547 C81.48040474 36.10252094 77.39932573 36.45781031 73.00341797 37.20849609 C72.34341797 36.87849609 71.68341797 36.54849609 71.00341797 36.20849609 C69.17132923 36.13781366 67.33674113 36.12428569 65.50341797 36.14599609 C64.03388672 36.15953125 64.03388672 36.15953125 62.53466797 36.17333984 C61.28169922 36.19074219 61.28169922 36.19074219 60.00341797 36.20849609 C57.00341797 36.20849609 54.00341797 36.20849609 51.00341797 36.20849609 C50.67341797 35.21849609 50.34341797 34.22849609 50.00341797 33.20849609 C49.67341797 33.20849609 49.34341797 33.20849609 49.00341797 33.20849609 C48.87841797 26.58349609 48.87841797 26.58349609 50.00341797 23.20849609 C48.02341797 23.20849609 46.04341797 23.20849609 44.00341797 23.20849609 C44.00341797 26.17849609 44.00341797 29.14849609 44.00341797 32.20849609 C44.66341797 32.20849609 45.32341797 32.20849609 46.00341797 32.20849609 C46.00341797 33.52849609 46.00341797 34.84849609 46.00341797 36.20849609 C34.21120856 37.10497985 22.79157126 37.17840744 11.00341797 36.20849609 C11.66341797 35.87849609 12.32341797 35.54849609 13.00341797 35.20849609 C13.00341797 34.54849609 13.00341797 33.88849609 13.00341797 33.20849609 C14.65341797 33.20849609 16.30341797 33.20849609 18.00341797 33.20849609 C17.01341797 32.71349609 17.01341797 32.71349609 16.00341797 32.20849609 C16.00341797 24.28849609 16.00341797 16.36849609 16.00341797 8.20849609 C15.34341797 8.20849609 14.68341797 8.20849609 14.00341797 8.20849609 C13.67341797 9.85849609 13.34341797 11.50849609 13.00341797 13.20849609 C9.37341797 13.20849609 5.74341797 13.20849609 2.00341797 13.20849609 C1.50841797 10.23849609 1.50841797 10.23849609 1.00341797 7.20849609 C-1.30658203 7.20849609 -3.61658203 7.20849609 -5.99658203 7.20849609 C-5.50158203 10.17849609 -5.50158203 10.17849609 -4.99658203 13.20849609 C-1.03658203 14.52849609 2.92341797 15.84849609 7.00341797 17.20849609 C7.00341797 17.86849609 7.00341797 18.52849609 7.00341797 19.20849609 C6.50841797 19.70349609 6.50841797 19.70349609 6.00341797 20.20849609 C6.18568008 22.71004363 6.52389818 25.17855407 6.84716797 27.66552734 C7.05203408 30.99972338 6.75541493 33.24164285 4.69091797 35.89599609 C0.67492518 39.01954604 -4.14239252 38.28939925 -8.99658203 38.20849609 C-8.50158203 37.21849609 -8.50158203 37.21849609 -7.99658203 36.20849609 C-9.31658203 35.54849609 -10.63658203 34.88849609 -11.99658203 34.20849609 C-12.49158203 35.19849609 -12.49158203 35.19849609 -12.99658203 36.20849609 C-14.69994204 34.50513609 -14.16840701 32.34403384 -14.18408203 30.02099609 C-14.16704487 25.64244629 -13.44489981 22.3465469 -11.99658203 18.20849609 C-12.65658203 17.21849609 -13.31658203 16.22849609 -13.99658203 15.20849609 C-14.20973188 11.7980985 -14.08147603 9.4631781 -12.99658203 6.20849609 C-14.14312685 8.50158573 -14.1938732 10.00759266 -14.31298828 12.56005859 C-14.35488281 13.41083984 -14.39677734 14.26162109 -14.43994141 15.13818359 C-14.47925781 16.02763672 -14.51857422 16.91708984 -14.55908203 17.83349609 C-14.60226563 18.73068359 -14.64544922 19.62787109 -14.68994141 20.55224609 C-14.79615064 22.77083892 -14.89819398 24.98954489 -14.99658203 27.20849609 C-16.31658203 27.20849609 -17.63658203 27.20849609 -18.99658203 27.20849609 C-19.12033203 28.17787109 -19.24408203 29.14724609 -19.37158203 30.14599609 C-19.68095703 31.66193359 -19.68095703 31.66193359 -19.99658203 33.20849609 C-20.98658203 33.70349609 -20.98658203 33.70349609 -21.99658203 34.20849609 C-22.65658203 35.19849609 -23.31658203 36.18849609 -23.99658203 37.20849609 C-23.99658203 36.54849609 -23.99658203 35.88849609 -23.99658203 35.20849609 C-25.48158203 35.70349609 -25.48158203 35.70349609 -26.99658203 36.20849609 C-33.84422144 36.67274283 -35.83212628 35.895167 -42.99658203 33.20849609 C-42.99658203 23.96849609 -42.99658203 14.72849609 -42.99658203 5.20849609 C-43.65658203 5.20849609 -44.31658203 5.20849609 -44.99658203 5.20849609 C-44.99658203 3.88849609 -44.99658203 2.56849609 -44.99658203 1.20849609 C-41.36658203 1.20849609 -37.73658203 1.20849609 -33.99658203 1.20849609 C-32.63362471 3.93441073 -33.32578487 6.01066239 -33.73876953 8.93994141 C-34.1609362 12.65468823 -34.06207159 16.3505914 -33.99658203 20.08349609 C-33.86294716 27.94122636 -33.86294716 27.94122636 -34.99658203 30.20849609 C-32.67049633 30.5891283 -30.33602939 30.92119554 -27.99658203 31.20849609 C-27.66658203 30.87849609 -27.33658203 30.54849609 -26.99658203 30.20849609 C-25.67658203 29.87849609 -24.35658203 29.54849609 -22.99658203 29.20849609 C-22.66658203 21.28849609 -22.33658203 13.36849609 -21.99658203 5.20849609 C-23.31658203 4.87849609 -24.63658203 4.54849609 -25.99658203 4.20849609 C-25.66658203 3.21849609 -25.33658203 2.22849609 -24.99658203 1.20849609 C-20.77123926 1.05759099 -17.13378784 1.04429443 -13.05908203 2.20849609 C-8.68507168 3.44330617 -4.51053429 3.39657744 0.00341797 3.20849609 C-2.47158203 2.71349609 -2.47158203 2.71349609 -4.99658203 2.20849609 C-2.99658203 0.20849609 -2.99658203 0.20849609 0 0 Z M13.00341797 2.20849609 C13.00341797 2.53849609 13.00341797 2.86849609 13.00341797 3.20849609 C25.21341797 3.20849609 37.42341797 3.20849609 50.00341797 3.20849609 C50.00341797 2.87849609 50.00341797 2.54849609 50.00341797 2.20849609 C37.79341797 2.20849609 25.58341797 2.20849609 13.00341797 2.20849609 Z M-36.99658203 5.20849609 C-36.99658203 13.45849609 -36.99658203 21.70849609 -36.99658203 30.20849609 C-36.66658203 30.20849609 -36.33658203 30.20849609 -35.99658203 30.20849609 C-35.99658203 21.95849609 -35.99658203 13.70849609 -35.99658203 5.20849609 C-36.32658203 5.20849609 -36.65658203 5.20849609 -36.99658203 5.20849609 Z M36.00341797 5.20849609 C36.00341797 7.51849609 36.00341797 9.82849609 36.00341797 12.20849609 C36.33341797 12.20849609 36.66341797 12.20849609 37.00341797 12.20849609 C37.00341797 9.89849609 37.00341797 7.58849609 37.00341797 5.20849609 C36.67341797 5.20849609 36.34341797 5.20849609 36.00341797 5.20849609 Z M62.00341797 5.20849609 C62.00341797 14.44849609 62.00341797 23.68849609 62.00341797 33.20849609 C62.33341797 33.20849609 62.66341797 33.20849609 63.00341797 33.20849609 C63.00341797 23.96849609 63.00341797 14.72849609 63.00341797 5.20849609 C62.67341797 5.20849609 62.34341797 5.20849609 62.00341797 5.20849609 Z M108.00341797 5.20849609 C108.00341797 5.53849609 108.00341797 5.86849609 108.00341797 6.20849609 C109.65341797 6.20849609 111.30341797 6.20849609 113.00341797 6.20849609 C113.00341797 5.87849609 113.00341797 5.54849609 113.00341797 5.20849609 C111.35341797 5.20849609 109.70341797 5.20849609 108.00341797 5.20849609 Z M11.00341797 6.20849609 C11.00341797 6.53849609 11.00341797 6.86849609 11.00341797 7.20849609 C12.98341797 7.20849609 14.96341797 7.20849609 17.00341797 7.20849609 C17.00341797 6.87849609 17.00341797 6.54849609 17.00341797 6.20849609 C15.02341797 6.20849609 13.04341797 6.20849609 11.00341797 6.20849609 Z M23.00341797 6.20849609 C23.00341797 14.78849609 23.00341797 23.36849609 23.00341797 32.20849609 C23.33341797 32.20849609 23.66341797 32.20849609 24.00341797 32.20849609 C24.00341797 23.95849609 24.00341797 15.70849609 24.00341797 7.20849609 C25.65341797 7.20849609 27.30341797 7.20849609 29.00341797 7.20849609 C29.00341797 6.87849609 29.00341797 6.54849609 29.00341797 6.20849609 C27.02341797 6.20849609 25.04341797 6.20849609 23.00341797 6.20849609 Z M84.00341797 6.20849609 C84.00341797 6.53849609 84.00341797 6.86849609 84.00341797 7.20849609 C86.97341797 7.20849609 89.94341797 7.20849609 93.00341797 7.20849609 C93.00341797 6.87849609 93.00341797 6.54849609 93.00341797 6.20849609 C90.03341797 6.20849609 87.06341797 6.20849609 84.00341797 6.20849609 Z M34.00341797 7.20849609 C34.00341797 8.85849609 34.00341797 10.50849609 34.00341797 12.20849609 C34.33341797 12.20849609 34.66341797 12.20849609 35.00341797 12.20849609 C35.00341797 10.55849609 35.00341797 8.90849609 35.00341797 7.20849609 C34.67341797 7.20849609 34.34341797 7.20849609 34.00341797 7.20849609 Z M68.00341797 7.20849609 C68.00341797 15.78849609 68.00341797 24.36849609 68.00341797 33.20849609 C70.47841797 34.19849609 70.47841797 34.19849609 73.00341797 35.20849609 C74.32341797 34.54849609 75.64341797 33.88849609 77.00341797 33.20849609 C77.00341797 24.62849609 77.00341797 16.04849609 77.00341797 7.20849609 C74.03341797 7.20849609 71.06341797 7.20849609 68.00341797 7.20849609 Z M107.00341797 7.20849609 C107.00341797 8.85849609 107.00341797 10.50849609 107.00341797 12.20849609 C107.33341797 12.20849609 107.66341797 12.20849609 108.00341797 12.20849609 C108.00341797 10.55849609 108.00341797 8.90849609 108.00341797 7.20849609 C107.67341797 7.20849609 107.34341797 7.20849609 107.00341797 7.20849609 Z M115.00341797 7.20849609 C116.00341797 9.20849609 116.00341797 9.20849609 116.00341797 9.20849609 Z M82.00341797 8.20849609 C82.00341797 10.51849609 82.00341797 12.82849609 82.00341797 15.20849609 C82.33341797 15.20849609 82.66341797 15.20849609 83.00341797 15.20849609 C83.00341797 12.89849609 83.00341797 10.58849609 83.00341797 8.20849609 C82.67341797 8.20849609 82.34341797 8.20849609 82.00341797 8.20849609 Z M85.00341797 8.20849609 C85.00341797 10.84849609 85.00341797 13.48849609 85.00341797 16.20849609 C87.97341797 16.70349609 87.97341797 16.70349609 91.00341797 17.20849609 C91.33341797 16.21849609 91.66341797 15.22849609 92.00341797 14.20849609 C91.67341797 13.54849609 91.34341797 12.88849609 91.00341797 12.20849609 C91.66341797 12.20849609 92.32341797 12.20849609 93.00341797 12.20849609 C93.00341797 10.88849609 93.00341797 9.56849609 93.00341797 8.20849609 C90.36341797 8.20849609 87.72341797 8.20849609 85.00341797 8.20849609 Z M100.00341797 8.20849609 C101.00341797 10.20849609 101.00341797 10.20849609 101.00341797 10.20849609 Z M105.00341797 8.20849609 C106.00341797 12.20849609 106.00341797 12.20849609 106.00341797 12.20849609 Z M29.00341797 9.20849609 C28.06918152 12.21881353 27.95891886 13.07499877 29.00341797 16.20849609 C30.32341797 16.20849609 31.64341797 16.20849609 33.00341797 16.20849609 C33.00341797 15.21849609 33.00341797 14.22849609 33.00341797 13.20849609 C32.01341797 13.20849609 31.02341797 13.20849609 30.00341797 13.20849609 C29.67341797 11.88849609 29.34341797 10.56849609 29.00341797 9.20849609 Z M45.00341797 9.20849609 C45.00341797 9.86849609 45.00341797 10.52849609 45.00341797 11.20849609 C44.01341797 11.20849609 43.02341797 11.20849609 42.00341797 11.20849609 C42.00341797 13.51849609 42.00341797 15.82849609 42.00341797 18.20849609 C44.31341797 18.20849609 46.62341797 18.20849609 49.00341797 18.20849609 C49.68015244 14.80528675 49.68015244 14.80528675 50.00341797 11.20849609 C49.34341797 10.54849609 48.68341797 9.88849609 48.00341797 9.20849609 C47.01341797 9.20849609 46.02341797 9.20849609 45.00341797 9.20849609 Z M51.00341797 9.20849609 C52.00341797 11.20849609 52.00341797 11.20849609 52.00341797 11.20849609 Z M109.00341797 13.20849609 C108.34341797 13.86849609 107.68341797 14.52849609 107.00341797 15.20849609 C107.99341797 15.53849609 108.98341797 15.86849609 110.00341797 16.20849609 C110.00341797 15.21849609 110.00341797 14.22849609 110.00341797 13.20849609 C109.67341797 13.20849609 109.34341797 13.20849609 109.00341797 13.20849609 Z M0.00341797 16.20849609 C-0.32658203 16.86849609 -0.65658203 17.52849609 -0.99658203 18.20849609 C0.32341797 18.53849609 1.64341797 18.86849609 3.00341797 19.20849609 C3.00341797 18.54849609 3.00341797 17.88849609 3.00341797 17.20849609 C2.01341797 16.87849609 1.02341797 16.54849609 0.00341797 16.20849609 Z M85.00341797 17.20849609 C85.00341797 17.53849609 85.00341797 17.86849609 85.00341797 18.20849609 C86.65341797 18.20849609 88.30341797 18.20849609 90.00341797 18.20849609 C90.00341797 17.87849609 90.00341797 17.54849609 90.00341797 17.20849609 C88.35341797 17.20849609 86.70341797 17.20849609 85.00341797 17.20849609 Z M102.00341797 18.20849609 C103.00341797 20.20849609 103.00341797 20.20849609 103.00341797 20.20849609 Z M104.00341797 19.20849609 C104.00341797 20.85849609 104.00341797 22.50849609 104.00341797 24.20849609 C105.98341797 25.19849609 107.96341797 26.18849609 110.00341797 27.20849609 C110.00341797 27.86849609 110.00341797 28.52849609 110.00341797 29.20849609 C109.67341797 28.54849609 109.34341797 27.88849609 109.00341797 27.20849609 C108.01341797 27.53849609 107.02341797 27.86849609 106.00341797 28.20849609 C106.00341797 28.86849609 106.00341797 29.52849609 106.00341797 30.20849609 C105.34341797 30.86849609 104.68341797 31.52849609 104.00341797 32.20849609 C107.38360327 33.24855311 110.48144587 33.28854091 114.00341797 33.20849609 C114.33341797 30.23849609 114.66341797 27.26849609 115.00341797 24.20849609 C111.37341797 22.55849609 107.74341797 20.90849609 104.00341797 19.20849609 Z M25.00341797 20.20849609 C25.00341797 24.16849609 25.00341797 28.12849609 25.00341797 32.20849609 C26.61216797 32.06412109 28.22091797 31.91974609 29.87841797 31.77099609 C30.78333984 31.68978516 31.68826172 31.60857422 32.62060547 31.52490234 C35.01452658 31.33860325 35.01452658 31.33860325 37.00341797 30.20849609 C37.00341797 29.54849609 37.00341797 28.88849609 37.00341797 28.20849609 C35.68341797 28.20849609 34.36341797 28.20849609 33.00341797 28.20849609 C33.00341797 25.56849609 33.00341797 22.92849609 33.00341797 20.20849609 C30.36341797 20.20849609 27.72341797 20.20849609 25.00341797 20.20849609 Z M82.00341797 20.20849609 C83.00341797 22.20849609 83.00341797 22.20849609 83.00341797 22.20849609 Z M44.00341797 21.20849609 C48.00341797 22.20849609 48.00341797 22.20849609 48.00341797 22.20849609 Z M90.00341797 21.20849609 C91.00341797 23.20849609 91.00341797 23.20849609 91.00341797 23.20849609 Z M42.00341797 22.20849609 C42.00341797 25.83849609 42.00341797 29.46849609 42.00341797 33.20849609 C42.66341797 32.87849609 43.32341797 32.54849609 44.00341797 32.20849609 C43.67341797 28.90849609 43.34341797 25.60849609 43.00341797 22.20849609 C42.67341797 22.20849609 42.34341797 22.20849609 42.00341797 22.20849609 Z M82.00341797 23.20849609 C82.00341797 26.50849609 82.00341797 29.80849609 82.00341797 33.20849609 C85.63341797 33.20849609 89.26341797 33.20849609 93.00341797 33.20849609 C93.00341797 32.87849609 93.00341797 32.54849609 93.00341797 32.20849609 C89.70341797 32.20849609 86.40341797 32.20849609 83.00341797 32.20849609 C83.00341797 29.23849609 83.00341797 26.26849609 83.00341797 23.20849609 C82.67341797 23.20849609 82.34341797 23.20849609 82.00341797 23.20849609 Z M-11.99658203 27.20849609 C-11.68720703 27.82724609 -11.37783203 28.44599609 -11.05908203 29.08349609 C-10.37158203 30.45849609 -9.68408203 31.83349609 -8.99658203 33.20849609 C-4.97527488 33.48484771 -4.97527488 33.48484771 -0.99658203 33.20849609 C1.0561226 31.36660998 1.0561226 31.36660998 2.00341797 29.20849609 C1.67341797 28.54849609 1.34341797 27.88849609 1.00341797 27.20849609 C0.15779297 27.39412109 -0.68783203 27.57974609 -1.55908203 27.77099609 C-5.27391023 28.24379241 -8.32632476 27.8691424 -11.99658203 27.20849609 Z M115.00341797 27.20849609 C116.00341797 30.20849609 116.00341797 30.20849609 116.00341797 30.20849609 Z M5.00341797 31.20849609 C6.00341797 33.20849609 6.00341797 33.20849609 6.00341797 33.20849609 Z M28.00341797 33.20849609 C28.00341797 33.53849609 28.00341797 33.86849609 28.00341797 34.20849609 C30.97341797 34.70349609 30.97341797 34.70349609 34.00341797 35.20849609 C34.00341797 34.54849609 34.00341797 33.88849609 34.00341797 33.20849609 C32.02341797 33.20849609 30.04341797 33.20849609 28.00341797 33.20849609 Z " fill="#000000" transform="translate(234.99658203125,59.79150390625)"/>
<path d="M0 0 C1.23363281 -0.02900391 2.46726563 -0.05800781 3.73828125 -0.08789062 C11.56906227 -0.1419821 17.36033603 0.87915234 24.375 4.3125 C26.01759181 4.98711393 27.66307577 5.65476791 29.3125 6.3125 C32.68316848 7.80530924 34.35371711 9.16828217 36.375 12.3125 C37.365 12.3125 38.355 12.3125 39.375 12.3125 C41.0625 13.6875 41.0625 13.6875 42.375 15.3125 C42.375 15.9725 42.375 16.6325 42.375 17.3125 C43.035 17.3125 43.695 17.3125 44.375 17.3125 C45.8828125 19.17578125 45.8828125 19.17578125 47.5 21.625 C48.03882812 22.42550781 48.57765625 23.22601562 49.1328125 24.05078125 C50.375 26.3125 50.375 26.3125 50.375 29.3125 C51.035 29.6425 51.695 29.9725 52.375 30.3125 C52.7890625 32.59765625 52.7890625 32.59765625 53 35.375 C53.11214844 36.75365234 53.11214844 36.75365234 53.2265625 38.16015625 C53.27554688 38.87042969 53.32453125 39.58070312 53.375 40.3125 C54.86 40.8075 54.86 40.8075 56.375 41.3125 C56.375 48.5725 56.375 55.8325 56.375 63.3125 C55.385 63.8075 55.385 63.8075 54.375 64.3125 C53.84379778 66.18921992 53.39920901 68.09084164 53 70 C52.1399824 73.7326537 51.40719413 76.77436384 49.125 79.875 C48.5475 80.679375 47.97 81.48375 47.375 82.3125 C47.705 83.3025 48.035 84.2925 48.375 85.3125 C47.715 85.3125 47.055 85.3125 46.375 85.3125 C46.23964844 86.01117188 46.10429688 86.70984375 45.96484375 87.4296875 C44.22747454 94.77449384 44.22747454 94.77449384 41.6171875 96.421875 C39.6875 96.9375 39.6875 96.9375 36.375 97.3125 C36.375 98.3025 36.375 99.2925 36.375 100.3125 C35.055 100.6425 33.735 100.9725 32.375 101.3125 C32.375 102.3025 32.375 103.2925 32.375 104.3125 C28.29493039 105.01866589 25.35392219 105.30723055 21.375 104.3125 C20.385 104.9725 19.395 105.6325 18.375 106.3125 C12.62701259 108.28755856 6.05325863 107.53906427 0.0625 107.5625 C-1.89719727 107.5934375 -1.89719727 107.5934375 -3.89648438 107.625 C-10.65163205 107.65247391 -15.62976633 107.46151163 -21.625 104.3125 C-22.615 104.8075 -22.615 104.8075 -23.625 105.3125 C-23.625 104.3225 -23.625 103.3325 -23.625 102.3125 C-24.98625 102.126875 -24.98625 102.126875 -26.375 101.9375 C-31.26710526 100.99671053 -31.26710526 100.99671053 -33.625 99.3125 C-34.30632451 97.65177151 -34.97242127 95.984733 -35.625 94.3125 C-37.5850281 92.67573743 -37.5850281 92.67573743 -39.625 91.3125 C-40.285 90.3225 -40.945 89.3325 -41.625 88.3125 C-42.615 87.9825 -43.605 87.6525 -44.625 87.3125 C-45.12 84.8375 -45.12 84.8375 -45.625 82.3125 C-46.615 81.9825 -47.605 81.6525 -48.625 81.3125 C-49.5390625 79.203125 -49.5390625 79.203125 -50.25 76.5625 C-50.48976562 75.70140625 -50.72953125 74.8403125 -50.9765625 73.953125 C-52.70636456 66.90887083 -52.84544519 60.13262723 -52.86523438 52.91040039 C-52.87498629 50.75303243 -52.90606975 48.59659987 -52.9375 46.43945312 C-52.94402681 45.06250562 -52.94927855 43.68555135 -52.953125 42.30859375 C-52.9624707 41.06263428 -52.97181641 39.8166748 -52.98144531 38.53295898 C-52.59858729 35.07386295 -51.92733445 33.83245536 -49.625 31.3125 C-49.295 30.6525 -48.965 29.9925 -48.625 29.3125 C-47.965 29.3125 -47.305 29.3125 -46.625 29.3125 C-46.52832031 28.7453125 -46.43164062 28.178125 -46.33203125 27.59375 C-45.46752051 24.80438939 -44.13333914 23.08952367 -42.3125 20.8125 C-41.71824219 20.0596875 -41.12398437 19.306875 -40.51171875 18.53125 C-38.63845452 16.32832229 -36.76740402 14.25612426 -34.625 12.3125 C-33.965 12.3125 -33.305 12.3125 -32.625 12.3125 C-32.955 11.3225 -33.285 10.3325 -33.625 9.3125 C-32.5421875 9.1578125 -32.5421875 9.1578125 -31.4375 9 C-27.61715701 8.06613838 -24.78450682 6.47200682 -22 3.6875 C-16.88745951 -1.42504049 -6.52810298 0.05021618 0 0 Z M-37.0859375 23.98046875 C-46.46406776 35.52461386 -47.92773281 47.31337566 -46.91601562 61.76611328 C-45.40587014 74.97988628 -37.08014172 85.17445703 -27.0625 93.3125 C-18.34839441 99.51848664 -10.55796915 101.75487603 0.0625 101.8125 C1.38060669 101.82192627 1.38060669 101.82192627 2.7253418 101.83154297 C15.44828922 101.58533093 25.88470605 96.33444769 35.046875 87.734375 C45.87503028 76.47018662 48.97995363 63.35462918 48.71484375 48.23046875 C48.11717432 35.32229697 41.21407493 25.77614777 32.1875 17.125 C19.90678359 6.57455635 7.48684524 5.45926975 -7.99707031 6.0859375 C-19.84870544 7.10770612 -29.54353844 15.36922704 -37.0859375 23.98046875 Z M41.375 17.3125 C41.705 18.3025 42.035 19.2925 42.375 20.3125 C42.375 19.3225 42.375 18.3325 42.375 17.3125 C42.045 17.3125 41.715 17.3125 41.375 17.3125 Z M49.375 29.3125 C50.375 31.3125 50.375 31.3125 50.375 31.3125 Z M-51.625 36.3125 C-50.625 38.3125 -50.625 38.3125 -50.625 38.3125 Z M53.375 41.3125 C54.375 43.3125 54.375 43.3125 54.375 43.3125 Z M54.375 45.3125 C55.375 47.3125 55.375 47.3125 55.375 47.3125 Z M54.375 56.3125 C55.375 59.3125 55.375 59.3125 55.375 59.3125 Z " fill="#2E2D2E" transform="translate(52.625,-0.3125)"/>
<path d="M0 0 C3.12482562 -0.08687496 6.24934246 -0.14034568 9.375 -0.1875 C10.70917969 -0.22520508 10.70917969 -0.22520508 12.0703125 -0.26367188 C12.92109375 -0.27333984 13.771875 -0.28300781 14.6484375 -0.29296875 C15.82672119 -0.31653442 15.82672119 -0.31653442 17.02880859 -0.34057617 C17.67930176 -0.22818604 18.32979492 -0.1157959 19 0 C19.66 0.99 20.32 1.98 21 3 C23.40972598 4.01324326 23.40972598 4.01324326 26.125 4.6875 C27.03507812 4.93886719 27.94515625 5.19023437 28.8828125 5.44921875 C29.58148438 5.63097656 30.28015625 5.81273437 31 6 C31 5.01 31 4.02 31 3 C35.94591768 0.93920097 39.87324445 -0.13324678 45.25 -0.0625 C46.14203125 -0.05347656 47.0340625 -0.04445313 47.953125 -0.03515625 C48.62859375 -0.02355469 49.3040625 -0.01195312 50 0 C50.495 1.485 50.495 1.485 51 3 C51.639375 3.144375 52.27875 3.28875 52.9375 3.4375 C55 4 55 4 56.125 5.6875 C56.41375 6.450625 56.7025 7.21375 57 8 C57.5878125 9.3303125 57.5878125 9.3303125 58.1875 10.6875 C59.43193348 15.76095959 59.40386363 20.26728835 56.9765625 24.9921875 C52.95938081 30.40261139 47.48288857 32.67714031 41 34 C36.73369167 34.18267342 32.65470908 34.33175051 29.21875 31.56640625 C28 30 28 30 28 28 C27.34 28 26.68 28 26 28 C25.67 29.32 25.34 30.64 25 32 C24.97292861 29.75006641 24.95357171 27.50003905 24.9375 25.25 C24.92589844 23.99703125 24.91429687 22.7440625 24.90234375 21.453125 C24.97978973 18.71463499 25.17219185 16.58119707 26 14 C25.01 14.33 24.02 14.66 23 15 C23.33 16.65 23.66 18.3 24 20 C24 23.96 24 27.92 24 32 C11.625 32.495 11.625 32.495 -1 33 C-3.25 26.25 -3.25 26.25 -3.1953125 22.2578125 C-3.18886719 21.41992188 -3.18242187 20.58203125 -3.17578125 19.71875 C-3.15902344 18.8628125 -3.14226562 18.006875 -3.125 17.125 C-3.11597656 16.24585937 -3.10695312 15.36671875 -3.09765625 14.4609375 C-3.07424577 12.3071729 -3.0383801 10.15354986 -3 8 C-2.34 8 -1.68 8 -1 8 C-0.67 5.36 -0.34 2.72 0 0 Z M25 6 C25.33 6.99 25.66 7.98 26 9 C26 8.34 26 7.68 26 7 C26.66 6.67 27.32 6.34 28 6 C27.01 6 26.02 6 25 6 Z M28 7 C29 9 29 9 29 9 Z M8 8 C9 12 9 12 9 12 Z M36 10 C36.33 10.99 36.66 11.98 37 13 C37.33 12.01 37.66 11.02 38 10 C37.34 10 36.68 10 36 10 Z M41 11 C42.98 11 44.96 11 47 11 C47.33 10.34 47.66 9.68 48 9 C44.89448334 9 43.64738916 9.5393715 41 11 Z M49 11 C50 13 50 13 50 13 Z M9 12 C9 12.33 9 12.66 9 13 C10.98 13 12.96 13 15 13 C15 12.67 15 12.34 15 12 C13.02 12 11.04 12 9 12 Z M35 13 C34.3121764 15.35367713 34.3121764 15.35367713 34 18 C34.99 19.485 34.99 19.485 36 21 C36 18.36 36 15.72 36 13 C35.67 13 35.34 13 35 13 Z M50 16 C51 19 51 19 51 19 Z M48 17 C47.67 18.32 47.34 19.64 47 21 C47.99 21 48.98 21 50 21 C49.34 19.68 48.68 18.36 48 17 Z M9 24 C9 24.33 9 24.66 9 25 C10.98 25 12.96 25 15 25 C15 24.67 15 24.34 15 24 C13.02 24 11.04 24 9 24 Z M28 24 C29 26 29 26 29 26 Z " fill="#000000" transform="translate(241,8)"/>
<path d="M0 0 C7 0 7 0 9.5625 2.25 C10.366875 3.1575 11.17125 4.065 12 5 C13.9433799 6.44828073 15.94491318 7.70959665 18 9 C17.67 9.99 17.34 10.98 17 12 C17.99 13.485 17.99 13.485 19 15 C19.33 12.03 19.66 9.06 20 6 C20.33 6 20.66 6 21 6 C21.33 4.02 21.66 2.04 22 0 C24.33294775 -0.04241723 26.66702567 -0.04092937 29 0 C30 1 30 1 30.11352539 3.77563477 C30.10828857 4.98533936 30.10305176 6.19504395 30.09765625 7.44140625 C30.09443359 8.74658203 30.09121094 10.05175781 30.08789062 11.39648438 C30.07953401 12.7851569 30.07106905 14.17382877 30.0625 15.5625 C30.05748666 16.95507656 30.05292347 18.34765481 30.04882812 19.74023438 C30.03699434 23.1601987 30.0205088 26.58007844 30 30 C30.99 30 31.98 30 33 30 C33 20.76 33 11.52 33 2 C40.08416115 -0.83366446 46.12911192 0.23964699 53.5 1.6875 C57.32373936 3.69496316 59.29261988 6.75996296 60.5859375 10.85546875 C61.66939883 16.46698073 62.23025364 22.15461954 59 27 C58.34 27.66 57.68 28.32 57 29 C57 29.99 57 30.98 57 32 C53.98968256 32.93423645 53.13349732 33.04449911 50 32 C46.61763359 32.14470017 43.2647954 32.39827564 39.89257812 32.68359375 C36.33895207 32.95365616 33.4167992 32.99124724 30 32 C28.49861741 32.05286558 26.99806717 32.13713193 25.5 32.25 C21.3234641 32.29792746 21.3234641 32.29792746 18.625 29.8125 C17.58431955 28.01132229 16.56165335 26.19954091 15.5625 24.375 C13.72868 21.5875936 11.87358761 20.61668506 9 19 C9.01160156 19.85464844 9.02320313 20.70929687 9.03515625 21.58984375 C9.04417969 22.69457031 9.05320312 23.79929687 9.0625 24.9375 C9.07410156 26.03964844 9.08570313 27.14179687 9.09765625 28.27734375 C9 31 9 31 8 32 C5.36 32 2.72 32 0 32 C0 21.44 0 10.88 0 0 Z M48 11 C48 11.66 48 12.32 48 13 C48.66 13 49.32 13 50 13 C50 12.34 50 11.68 50 11 C49.34 11 48.68 11 48 11 Z M51 11 C52 14 52 14 52 14 Z M10 16 C11 18 11 18 11 18 Z " fill="#000000" transform="translate(303,8)"/>
<path d="M0 0 C2.5 0.125 2.5 0.125 3.5 1.125 C3.625 3.625 3.625 3.625 3.5 6.125 C3.17 6.455 2.84 6.785 2.5 7.125 C9.1 7.455 15.7 7.785 22.5 8.125 C22.5 10.435 22.5 12.745 22.5 15.125 C15.9 15.125 9.3 15.125 2.5 15.125 C2.5 20.735 2.5 26.345 2.5 32.125 C4.995625 32.00125 7.49125 31.8775 10.0625 31.75 C18.96366752 31.54595152 18.96366752 31.54595152 22.9375 35 C26.63985008 39.00201811 26.83898491 42.25299373 26.78515625 47.58203125 C26.37045535 51.28025439 24.92637065 53.36163342 22.5 56.125 C18.5 59.125 18.5 59.125 -4.5 59.125 C-4.5 42.295 -4.5 25.465 -4.5 8.125 C-3.84 7.795 -3.18 7.465 -2.5 7.125 C-3.16 6.465 -3.82 5.805 -4.5 5.125 C-3.7519084 0.18759542 -3.7519084 0.18759542 0 0 Z " fill="#222021" transform="translate(42.5,23.875)"/>
<path d="M0 0 C8.40055552 6.86737428 14.72223989 14.79664075 17.0546875 25.6796875 C17.86119219 38.90107587 17.5518781 51.2096488 8.671875 61.87890625 C8.13820313 62.47316406 7.60453125 63.06742187 7.0546875 63.6796875 C6.54164062 64.28425781 6.02859375 64.88882813 5.5 65.51171875 C-2.11914259 73.87819351 -11.9074531 78.02353571 -23.0078125 78.9296875 C-35.31856346 79.39424414 -46.6427472 75.14187822 -55.9140625 66.9375 C-65.35717597 56.95596339 -69.53058371 44.54606907 -69.25 31.046875 C-68.22849384 19.75792236 -62.92323935 10.29247048 -54.70703125 2.578125 C-38.56908364 -10.52176339 -17.33042185 -12.75976114 0 0 Z M-55.9453125 9.6796875 C-64.31756754 19.78657466 -65.87151942 30.25128369 -64.734375 43.0546875 C-63.2153581 52.50634821 -56.54587744 61.98281546 -48.9453125 67.6796875 C-38.63772814 73.73247672 -29.2518875 76.29703043 -17.29296875 74.21875 C-5.55848042 71.06730764 3.20546535 64.36057223 9.66015625 54.13671875 C14.35642317 44.80995895 15.25078142 32.62051849 12.45849609 22.52392578 C7.83358746 9.97498657 -0.03336204 3.60046772 -11.73828125 -1.9375 C-28.10632452 -8.99509722 -44.40243092 -2.89197141 -55.9453125 9.6796875 Z " fill="#313030" transform="translate(78.9453125,18.3203125)"/>
<path d="M0 0 C3.77043032 -0.14496508 7.54014742 -0.23395607 11.3125 -0.3125 C12.9202832 -0.3753418 12.9202832 -0.3753418 14.56054688 -0.43945312 C15.58857422 -0.45556641 16.61660156 -0.47167969 17.67578125 -0.48828125 C18.62364502 -0.51446533 19.57150879 -0.54064941 20.5480957 -0.56762695 C23 0 23 0 24.78979492 2.38598633 C25.82545333 4.62298342 26.55284742 6.58537606 27 9 C27.66 9 28.32 9 29 9 C29.2475 9.639375 29.495 10.27875 29.75 10.9375 C30.79734983 13.17876824 30.79734983 13.17876824 33 13.625 C33.66 13.74875 34.32 13.8725 35 14 C35.66 14.66 36.32 15.32 37 16 C37.33 12.7 37.66 9.4 38 6 C36.02 6 34.04 6 32 6 C32.66 4.68 33.32 3.36 34 2 C37.3 2 40.6 2 44 2 C44 2.99 44 3.98 44 5 C43.01 5.33 42.02 5.66 41 6 C41 15.24 41 24.48 41 34 C37 35 37 35 35 35 C35 34.01 35 33.02 35 32 C34.34 32 33.68 32 33 32 C32.505 30.02 32.505 30.02 32 28 C31.34 28 30.68 28 30 28 C30.33 26.68 30.66 25.36 31 24 C30.34 24.33 29.68 24.66 29 25 C28.34 25.33 27.68 25.66 27 26 C26.53348793 28.12576782 26.53348793 28.12576782 26.375 30.5625 C26.30023438 31.38878906 26.22546875 32.21507812 26.1484375 33.06640625 C26.09945312 33.70449219 26.05046875 34.34257813 26 35 C23.0703125 34.95117188 23.0703125 34.95117188 20.140625 34.90234375 C18.02371903 34.91569154 18.02371903 34.91569154 16.15625 35.53125 C13.10857311 36.19378845 10.34731823 35.84125864 7.25 35.5625 C6.07953125 35.46066406 4.9090625 35.35882813 3.703125 35.25390625 C2.81109375 35.17011719 1.9190625 35.08632812 1 35 C1 34.01 1 33.02 1 32 C1.99 32 2.98 32 4 32 C4 22.76 4 13.52 4 4 C2.68 4 1.36 4 0 4 C0 2.68 0 1.36 0 0 Z M13 2 C11.97580376 5.38381418 11.87095564 8.4813678 11.8671875 12.0078125 C11.86589844 13.15894531 11.86460938 14.31007813 11.86328125 15.49609375 C11.86714844 16.69363281 11.87101562 17.89117187 11.875 19.125 C11.87113281 20.33027344 11.86726563 21.53554687 11.86328125 22.77734375 C11.86457031 23.92589844 11.86585937 25.07445313 11.8671875 26.2578125 C11.86831543 27.3111377 11.86944336 28.36446289 11.87060547 29.44970703 C11.82855219 31.99153499 11.82855219 31.99153499 13 34 C13.66 34 14.32 34 15 34 C15.66 33.34 16.32 32.68 17 32 C17.33 32 17.66 32 18 32 C18 22.76 18 13.52 18 4 C17.01 4 16.02 4 15 4 C15 3.34 15 2.68 15 2 C14.34 2 13.68 2 13 2 Z M23 12 C24 14 24 14 24 14 Z M25 15 C26 17 26 17 26 17 Z M24 17 C25 19 25 19 25 19 Z M27 19 C28 21 28 21 28 21 Z M35 20 C35.66 20.66 36.32 21.32 37 22 C37 21.34 37 20.68 37 20 C36.34 20 35.68 20 35 20 Z M37 22 C38 24 38 24 38 24 Z M32 26 C32.33 26.99 32.66 27.98 33 29 C33 28.01 33 27.02 33 26 C32.67 26 32.34 26 32 26 Z " fill="#000000" transform="translate(114,61)"/>
<path d="M0 0 C3.568125 0.061875 7.13625 0.12375 10.8125 0.1875 C11.93374268 0.19418701 13.05498535 0.20087402 14.21020508 0.20776367 C21.4028998 0.43607204 21.4028998 0.43607204 24.25 3.125 C25.18358202 6.70373106 24.88330246 9.18700295 24.1875 12.8125 C23.97480469 13.97394531 23.76210937 15.13539062 23.54296875 16.33203125 C23.36378906 17.21246094 23.18460938 18.09289062 23 19 C23.66 19 24.32 19 25 19 C25 21.31 25 23.62 25 26 C25.66 26 26.32 26 27 26 C27 28.31 27 30.62 27 33 C18.09 32.67 9.18 32.34 0 32 C0 21.44 0 10.88 0 0 Z M23 7 C24 9 24 9 24 9 Z M14 8 C14 9.32 14 10.64 14 12 C14.66 12 15.32 12 16 12 C15.34 10.68 14.68 9.36 14 8 Z M8 12 C12 13 12 13 12 13 Z M9 24 C9 24.33 9 24.66 9 25 C11.31 25 13.62 25 16 25 C16 24.67 16 24.34 16 24 C13.69 24 11.38 24 9 24 Z " fill="#000000" transform="translate(151,8)"/>
<path d="M0 0 C3.08315385 -0.08733513 6.16598827 -0.14050127 9.25 -0.1875 C10.12269531 -0.21263672 10.99539062 -0.23777344 11.89453125 -0.26367188 C18.42232479 -0.3384176 18.42232479 -0.3384176 21.48046875 1.453125 C22.23263672 2.21882813 22.23263672 2.21882813 23 3 C23.680625 3.309375 24.36125 3.61875 25.0625 3.9375 C28.49503563 5.81985825 29.78874598 8.36623793 31 12 C31.24705239 13.61956565 31.45169068 15.24589237 31.625 16.875 C31.72039062 17.71804687 31.81578125 18.56109375 31.9140625 19.4296875 C32.04207704 23.25848592 31.85333794 25.90531395 29.453125 28.984375 C20.79197495 35.92558036 10.6003008 35.11557049 0 35 C0.99 34.505 0.99 34.505 2 34 C2.049377 29.47934572 2.08570823 24.95884783 2.10986328 20.43798828 C2.11993118 18.89954902 2.13358646 17.36112893 2.15087891 15.82275391 C2.17509317 13.61355867 2.18647491 11.40461605 2.1953125 9.1953125 C2.20563507 8.50567413 2.21595764 7.81603577 2.22659302 7.10549927 C2.22699478 5.40199094 2.12191026 3.69914057 2 2 C1.34 1.34 0.68 0.68 0 0 Z M4 4 C4 12.91 4 21.82 4 31 C4.33 31 4.66 31 5 31 C5 22.09 5 13.18 5 4 C4.67 4 4.34 4 4 4 Z M10 5 C10 5.33 10 5.66 10 6 C12.64 6 15.28 6 18 6 C18 5.67 18 5.34 18 5 C15.36 5 12.72 5 10 5 Z M13 11 C13 17.93 13 24.86 13 32 C14.65 32 16.3 32 18 32 C18 31.01 18 30.02 18 29 C18.99 29.33 19.98 29.66 21 30 C21 29.01 21 28.02 21 27 C20.01 27 19.02 27 18 27 C18 21.72 18 16.44 18 11 C16.35 11 14.7 11 13 11 Z M23 16 C24 18 24 18 24 18 Z M30 16 C30 17.65 30 19.3 30 21 C30.33 21 30.66 21 31 21 C31 19.35 31 17.7 31 16 C30.67 16 30.34 16 30 16 Z M23 21 C24 24 24 24 24 24 Z M29 22 C30 25 30 25 30 25 Z M22 25 C23 27 23 27 23 27 Z " fill="#000000" transform="translate(158,61)"/>
<path d="M0 0 C0.33 0 0.66 0 1 0 C1.02465288 4.68139254 1.04283739 9.36274759 1.05493164 14.04418945 C1.05997157 15.63794614 1.0668035 17.23169819 1.07543945 18.82543945 C1.08751999 21.11150253 1.09323155 23.39750467 1.09765625 25.68359375 C1.10281754 26.40026718 1.10797882 27.11694061 1.11329651 27.85533142 C1.11349263 29.57063672 1.06192007 31.28581266 1 33 C-0.56977574 34.56977574 -2.14196387 34.20737081 -4.3125 34.25 C-7.30515772 34.21187697 -8.83567825 34.08015695 -11.5625 32.75 C-13 31 -13 31 -13 27 C-13.99 27.33 -14.98 27.66 -16 28 C-16.33 29.98 -16.66 31.96 -17 34 C-19.64 34 -22.28 34 -25 34 C-25 23.44 -25 12.88 -25 2 C-22.31875 1.9175 -19.6375 1.835 -16.875 1.75 C-15.62565674 1.69537598 -15.62565674 1.69537598 -14.35107422 1.63964844 C-9.10246922 1.56200265 -6.15109957 2.50842092 -2 6 C-0.73762269 8.52475462 -0.90143596 10.31200466 -0.9375 13.125 C-0.94652344 14.03507812 -0.95554688 14.94515625 -0.96484375 15.8828125 C-0.97644531 16.58148437 -0.98804688 17.28015625 -1 18 C-1.64066406 18.29003906 -2.28132813 18.58007812 -2.94140625 18.87890625 C-5.14487997 19.81989795 -5.14487997 19.81989795 -5.9375 21.9375 C-6.24356313 24.10060539 -6.24356313 24.10060539 -4.5625 25.5625 C-4.046875 26.036875 -3.53125 26.51125 -3 27 C-3 27.99 -3 28.98 -3 30 C-2.34 29.67 -1.68 29.34 -1 29 C-0.67 19.43 -0.34 9.86 0 0 Z M-16 15 C-16 15.33 -16 15.66 -16 16 C-14.35 16 -12.7 16 -11 16 C-11 15.67 -11 15.34 -11 15 C-12.65 15 -14.3 15 -16 15 Z " fill="#000000" transform="translate(204,6)"/>
<path d="M0 0 C6.27 0 12.54 0 19 0 C20.125 10.125 20.125 10.125 20.09765625 15.12890625 C20.09443359 16.18271484 20.09121094 17.23652344 20.08789062 18.32226562 C20.07951172 19.39154297 20.07113281 20.46082031 20.0625 21.5625 C20.05798828 22.66658203 20.05347656 23.77066406 20.04882812 24.90820312 C20.03715155 27.60549258 20.01922028 30.30275375 20 33 C13.4 33 6.8 33 0 33 C0 22.11 0 11.22 0 0 Z M8 9 C8 10.65 8 12.3 8 14 C10.64 14 13.28 14 16 14 C16 13.67 16 13.34 16 13 C13.69 13 11.38 13 9 13 C8.67 11.68 8.34 10.36 8 9 Z M10 9 C10 9.33 10 9.66 10 10 C12.64 10 15.28 10 18 10 C18 9.67 18 9.34 18 9 C15.36 9 12.72 9 10 9 Z M10 11 C10 11.33 10 11.66 10 12 C12.64 12 15.28 12 18 12 C18 11.67 18 11.34 18 11 C15.36 11 12.72 11 10 11 Z M8 21 C8.33 22.32 8.66 23.64 9 25 C9 24.01 9 23.02 9 22 C11.97 22 14.94 22 18 22 C18 21.67 18 21.34 18 21 C14.7 21 11.4 21 8 21 Z M10 23 C10 23.33 10 23.66 10 24 C12.64 24 15.28 24 18 24 C18 23.67 18 23.34 18 23 C15.36 23 12.72 23 10 23 Z M9 25 C9 25.33 9 25.66 9 26 C11.97 26 14.94 26 18 26 C18 25.67 18 25.34 18 25 C15.03 25 12.06 25 9 25 Z " fill="#000000" transform="translate(206,7)"/>
<path d="M0 0 C0.78552246 0.01047363 1.57104492 0.02094727 2.38037109 0.03173828 C3.23115234 0.03818359 4.08193359 0.04462891 4.95849609 0.05126953 C6.29267578 0.07640625 6.29267578 0.07640625 7.65380859 0.10205078 C8.99958984 0.11558594 8.99958984 0.11558594 10.37255859 0.12939453 C12.59157445 0.15300108 14.81005937 0.18592768 17.02880859 0.22705078 C16.69880859 2.86705078 16.36880859 5.50705078 16.02880859 8.22705078 C12.39880859 8.22705078 8.76880859 8.22705078 5.02880859 8.22705078 C6.06287532 9.48654127 6.06287532 9.48654127 8.31396484 9.32470703 C9.23048828 9.31310547 10.14701172 9.30150391 11.09130859 9.28955078 C12.01041016 9.28052734 12.92951172 9.27150391 13.87646484 9.26220703 C14.58673828 9.25060547 15.29701172 9.23900391 16.02880859 9.22705078 C15.76583984 10.15710938 15.76583984 10.15710938 15.49755859 11.10595703 C14.86637701 13.20212948 14.86637701 13.20212948 15.52880859 15.16455078 C16.16061621 17.77075718 15.6721247 19.65378636 15.02880859 22.22705078 C12.05880859 22.22705078 9.08880859 22.22705078 6.02880859 22.22705078 C5.69880859 25.52705078 5.36880859 28.82705078 5.02880859 32.22705078 C2.38880859 32.22705078 -0.25119141 32.22705078 -2.97119141 32.22705078 C-5.25950249 27.65042862 -4.15621846 21.25207787 -4.15869141 16.22705078 C-4.1709375 14.91736328 -4.18318359 13.60767578 -4.19580078 12.25830078 C-4.19773437 11.01048828 -4.19966797 9.76267578 -4.20166016 8.47705078 C-4.20576904 7.32720703 -4.20987793 6.17736328 -4.21411133 4.99267578 C-3.929764 1.75540291 -3.38919538 0.39038292 0 0 Z " fill="#000000" transform="translate(119.97119140625,7.77294921875)"/>
<path d="M0 0 C2.371875 -0.103125 4.74375 -0.20625 7.1875 -0.3125 C7.92508545 -0.35802002 8.6626709 -0.40354004 9.42260742 -0.45043945 C13.2731711 -0.53103869 14.88167588 -0.09081415 17.95703125 2.26953125 C20.47085705 5.62930991 20.62119841 7.05715273 20.37109375 11.06640625 C19.7576737 14.26264758 18.28746501 16.71253499 16 19 C13.3013095 19.07325436 10.63497444 19.09222351 7.9375 19.0625 C5.318125 19.041875 2.69875 19.02125 0 19 C0 12.73 0 6.46 0 0 Z " fill="#FCFAFB" transform="translate(45,60)"/>
<path d="M0 0 C0.33 0.99 0.66 1.98 1 3 C1.66 3.33 2.32 3.66 3 4 C2.67515625 4.87398437 2.67515625 4.87398437 2.34375 5.765625 C-0.82897675 15.10754266 -1.59586353 25.62507007 2 35 C7.52990635 45.93413301 15.32780865 53.97510643 27 58 C29.32505778 58.74504614 31.63260326 59.39555828 34 60 C33.01 60.495 33.01 60.495 32 61 C32 61.66 32 62.32 32 63 C35.96 63 39.92 63 44 63 C44 63.33 44 63.66 44 64 C30.3334972 64.78218458 18.46092117 61.48724373 8.03125 52.2578125 C-1.43228027 42.25469498 -5.50557224 29.91089412 -5.33203125 16.40625 C-4.84513001 11.41121612 -3.71756034 3.71756034 0 0 Z " fill="#323232" transform="translate(15,33)"/>
<path d="M0 0 C0 1.32 0 2.64 0 4 C-0.66 4 -1.32 4 -2 4 C-2 13.24 -2 22.48 -2 32 C-4.64 32 -7.28 32 -10 32 C-10 21.77 -10 11.54 -10 1 C-6.33418546 0.26683709 -3.63300168 -0.10380005 0 0 Z " fill="#000000" transform="translate(149,8)"/>
<path d="M0 0 C10.3220339 -0.91525424 10.3220339 -0.91525424 14.3203125 1.265625 C17.35408265 3.88050639 19.78499769 6.04030684 20.23828125 10.171875 C20.40635435 16.0102038 20.01420121 19.42827085 16 24 C13.34200077 26.41636294 12.64705667 27 9 27 C9 26.34 9 25.68 9 25 C4.71 24.67 0.42 24.34 -4 24 C-4 23.67 -4 23.34 -4 23 C-2.87980469 22.98582031 -1.75960937 22.97164062 -0.60546875 22.95703125 C0.86722869 22.91013006 2.33988368 22.86188266 3.8125 22.8125 C4.55048828 22.80669922 5.28847656 22.80089844 6.04882812 22.79492188 C8.49564662 22.74683485 8.49564662 22.74683485 12 22 C14.45934105 19.15336115 15.43005033 16.68468178 15.4375 12.9375 C15.32978446 9.09551069 15.32978446 9.09551069 13.45703125 6.80078125 C10.17101509 4.39242918 7.18359863 4.33179506 3.25 4.25 C2.55261719 4.22035156 1.85523438 4.19070312 1.13671875 4.16015625 C-0.57490813 4.08981542 -2.28745815 4.04260054 -4 4 C-4 3.67 -4 3.34 -4 3 C-2.35 2.67 -0.7 2.34 1 2 C0.67 1.34 0.34 0.68 0 0 Z " fill="#2E2C2D" transform="translate(49,56)"/>
<path d="M0 0 C0.66 0 1.32 0 2 0 C1.85582797 4.75767693 -0.4754159 7.11325583 -3.76171875 10.22265625 C-9.98581101 15.16499827 -17.03293756 19.15884138 -25.109375 19.09765625 C-25.86347656 19.09443359 -26.61757813 19.09121094 -27.39453125 19.08789062 C-28.17183594 19.07951172 -28.94914062 19.07113281 -29.75 19.0625 C-30.54277344 19.05798828 -31.33554687 19.05347656 -32.15234375 19.04882812 C-34.10159508 19.03708565 -36.05080738 19.01915146 -38 19 C-38 18.34 -38 17.68 -38 17 C-35.15331048 15.57665524 -32.41873477 15.65768796 -29.25 15.375 C-18.4000386 14.12662302 -8.44607931 9.74218064 -1.234375 1.28515625 C-0.82703125 0.86105469 -0.4196875 0.43695313 0 0 Z " fill="#343233" transform="translate(85,77)"/>
<path d="M0 0 C2.5 0.125 2.5 0.125 3.5 1.125 C3.625 3.625 3.625 3.625 3.5 6.125 C3.17 6.455 2.84 6.785 2.5 7.125 C9.1 7.455 15.7 7.785 22.5 8.125 C22.5 10.435 22.5 12.745 22.5 15.125 C22.17 15.125 21.84 15.125 21.5 15.125 C21.5 13.145 21.5 11.165 21.5 9.125 C12.92 9.125 4.34 9.125 -4.5 9.125 C-3.84 8.465 -3.18 7.805 -2.5 7.125 C-3.16 6.465 -3.82 5.805 -4.5 5.125 C-3.7519084 0.18759542 -3.7519084 0.18759542 0 0 Z " fill="#434343" transform="translate(42.5,23.875)"/>
<path d="M0 0 C10.3220339 -0.91525424 10.3220339 -0.91525424 14.3203125 1.265625 C16.72140724 3.33518783 18.57703623 5.15407246 20 8 C20.06996014 9.70702735 20.08440154 11.41668003 20.0625 13.125 C20.05347656 14.03507812 20.04445313 14.94515625 20.03515625 15.8828125 C20.02355469 16.58148438 20.01195313 17.28015625 20 18 C19.67 18 19.34 18 19 18 C19 15.03 19 12.06 19 9 C17.68 9 16.36 9 15 9 C14.12601563 8.03320312 14.12601563 8.03320312 13.234375 7.046875 C10.15377503 4.22478692 7.23425581 4.33284842 3.25 4.25 C2.55261719 4.22035156 1.85523438 4.19070312 1.13671875 4.16015625 C-0.57490813 4.08981542 -2.28745815 4.04260054 -4 4 C-4 3.67 -4 3.34 -4 3 C-2.35 2.67 -0.7 2.34 1 2 C0.67 1.34 0.34 0.68 0 0 Z " fill="#393738" transform="translate(49,56)"/>
<path d="M0 0 C0.33 0 0.66 0 1 0 C1.06058594 1.02480469 1.12117188 2.04960938 1.18359375 3.10546875 C1.26805026 4.46615695 1.35269567 5.82683343 1.4375 7.1875 C1.47681641 7.86103516 1.51613281 8.53457031 1.55664062 9.22851562 C1.74046704 12.12731672 1.97072421 14.8770417 2.64453125 17.70703125 C3.08768986 20.56564781 2.50405873 21.91918348 1.25 24.5 C0.87875 25.27214844 0.5075 26.04429688 0.125 26.83984375 C-1.15263348 29.29307747 -2.50023011 31.67535666 -4 34 C-4.495 32.515 -4.495 32.515 -5 31 C-5.66 30.67 -6.32 30.34 -7 30 C-6.65066406 29.31292969 -6.30132812 28.62585938 -5.94140625 27.91796875 C-5.48636719 27.01691406 -5.03132813 26.11585937 -4.5625 25.1875 C-4.11003906 24.29417969 -3.65757813 23.40085937 -3.19140625 22.48046875 C-1.63741361 19.24510703 -0.87048878 16.53928678 -0.68359375 12.98828125 C-0.64169922 12.23095703 -0.59980469 11.47363281 -0.55664062 10.69335938 C-0.51732422 9.90767578 -0.47800781 9.12199219 -0.4375 8.3125 C-0.37272461 7.11657227 -0.37272461 7.11657227 -0.30664062 5.89648438 C-0.20072632 3.93118553 -0.09987449 1.96561504 0 0 Z " fill="#2D2B2C" transform="translate(92,46)"/>
<path d="M0 0 C0.99 0.33 1.98 0.66 3 1 C3.625 2.890625 3.625 2.890625 4 5.25 C4.57626355 8.38467498 5.03125334 10.05022858 6.75 12.8125 C7.1625 13.534375 7.575 14.25625 8 15 C7.1875 17.3125 7.1875 17.3125 6 19 C2.04465339 15.51065687 0.42351987 10.99005607 -1 6 C-0.75 2.375 -0.75 2.375 0 0 Z " fill="#313131" transform="translate(12,58)"/>
<path d="M0 0 C1.32 0.33 2.64 0.66 4 1 C4.05379226 3.95857409 4.09357093 6.91617721 4.125 9.875 C4.14175781 10.71675781 4.15851563 11.55851562 4.17578125 12.42578125 C4.18222656 13.23144531 4.18867187 14.03710938 4.1953125 14.8671875 C4.20578613 15.61081543 4.21625977 16.35444336 4.22705078 17.12060547 C4 19 4 19 2 21 C1.11360611 18.34081834 0.82010975 16.51935359 0.68359375 13.76953125 C0.64169922 12.96708984 0.59980469 12.16464844 0.55664062 11.33789062 C0.51732422 10.50451172 0.47800781 9.67113281 0.4375 8.8125 C0.39431641 7.96751953 0.35113281 7.12253906 0.30664062 6.25195312 C0.20068482 4.16815567 0.0998498 2.08409897 0 0 Z " fill="#201E1F" transform="translate(92,43)"/>
<path d="M0 0 C7.62951555 -0.34855655 13.92444501 -0.0017506 21 3 C21 3.99 21 4.98 21 6 C14.84765625 5.4140625 14.84765625 5.4140625 13 5 C12.67 4.34 12.34 3.68 12 3 C9.1840151 2.53101037 9.1840151 2.53101037 5.9375 2.375 C4.28041016 2.26285156 4.28041016 2.26285156 2.58984375 2.1484375 C1.73519531 2.09945313 0.88054688 2.05046875 0 2 C0 1.34 0 0.68 0 0 Z " fill="#383738" transform="translate(47,10)"/>
<path d="M0 0 C0.66 0 1.32 0 2 0 C1.84910058 4.97968095 -0.88119311 7.32187142 -4.2109375 10.64453125 C-6 12 -6 12 -9 12 C-9 8 -9 8 -7.28515625 6.11328125 C-6.55167969 5.51902344 -5.81820312 4.92476563 -5.0625 4.3125 C-4.33160156 3.71050781 -3.60070312 3.10851562 -2.84765625 2.48828125 C-2.23792969 1.99714844 -1.62820312 1.50601563 -1 1 C-0.67 0.67 -0.34 0.34 0 0 Z " fill="#222021" transform="translate(85,77)"/>
<path d="M0 0 C5.73071096 1.84548319 9.06036945 3.44480217 13 8 C9.91863039 8.92718689 8.38328753 9.14268368 5.32421875 8.00390625 C4.45410156 7.52824219 3.58398438 7.05257813 2.6875 6.5625 C1.80449219 6.08941406 0.92148438 5.61632812 0.01171875 5.12890625 C-0.65214844 4.75636719 -1.31601563 4.38382813 -2 4 C-1.34 3.67 -0.68 3.34 0 3 C0 2.01 0 1.02 0 0 Z " fill="#2F2D2E" transform="translate(68,13)"/>
<path d="M0 0 C-0.33 2.31 -0.66 4.62 -1 7 C-5.455 8.485 -5.455 8.485 -10 10 C-8.09457119 5.58742802 -5.50046861 0 0 0 Z " fill="#747273" transform="translate(97,88)"/>
<path d="M0 0 C1.08667969 0.29197266 1.08667969 0.29197266 2.1953125 0.58984375 C2.74960937 0.74582031 3.30390625 0.90179688 3.875 1.0625 C2.885 1.5575 2.885 1.5575 1.875 2.0625 C1.875 2.7225 1.875 3.3825 1.875 4.0625 C5.835 4.0625 9.795 4.0625 13.875 4.0625 C13.875 4.3925 13.875 4.7225 13.875 5.0625 C0.2417426 5.4315205 0.2417426 5.4315205 -6.125 3.0625 C-6.125 2.0725 -6.125 1.0825 -6.125 0.0625 C-3.57797384 -1.21101308 -2.6967055 -0.73941925 0 0 Z " fill="#4C4A4B" transform="translate(45.125,91.9375)"/>
<path d="M0 0 C1.14726563 0.08765625 2.29453125 0.1753125 3.4765625 0.265625 C6.375 0.75 6.375 0.75 8.375 2.75 C1.775 3.08 -4.825 3.41 -11.625 3.75 C-9.22788321 -1.04423358 -4.75336534 -0.40773788 0 0 Z " fill="#1E1E1E" transform="translate(52.625,11.25)"/>
<path d="M0 0 C1.09570312 0.00902344 2.19140625 0.01804687 3.3203125 0.02734375 C4.16335937 0.03894531 5.00640625 0.05054687 5.875 0.0625 C5.545 1.0525 5.215 2.0425 4.875 3.0625 C0.585 3.0625 -3.705 3.0625 -8.125 3.0625 C-8.125 2.4025 -8.125 1.7425 -8.125 1.0625 C-5.36047967 -0.31976016 -3.0788637 -0.03275387 0 0 Z " fill="#1E1C1D" transform="translate(55.125,92.9375)"/>
<path d="M0 0 C2.125 -0.4375 2.125 -0.4375 5 0 C7.276147 2.12689146 9.1458722 4.5023433 11 7 C9.234375 7.7109375 9.234375 7.7109375 7 8 C5.078125 6.6015625 5.078125 6.6015625 3.25 4.625 C2.63640625 3.97789063 2.0228125 3.33078125 1.390625 2.6640625 C0 1 0 1 0 0 Z " fill="#242223" transform="translate(77,21)"/>
<path d="M0 0 C0.99 0.33 1.98 0.66 3 1 C1.7580393 4.43927579 0.44259716 7.25207819 -2 10 C-2.66 10 -3.32 10 -4 10 C-3.38461538 3.47692308 -3.38461538 3.47692308 -1.4375 1.0625 C-0.7259375 0.5365625 -0.7259375 0.5365625 0 0 Z " fill="#272727" transform="translate(20,26)"/>
<path d="M0 0 C11.55 0 23.1 0 35 0 C35 0.33 35 0.66 35 1 C23.45 1 11.9 1 0 1 C0 0.67 0 0.34 0 0 Z " fill="#000000" transform="translate(294,61)"/>
<path d="M0 0 C0.99 0.33 1.98 0.66 3 1 C3 3.97 3 6.94 3 10 C2.01 9.67 1.02 9.34 0 9 C-1.125 2.25 -1.125 2.25 0 0 Z " fill="#2A2A2A" transform="translate(12,58)"/>
<path d="M0 0 C0.33 0 0.66 0 1 0 C1 10.56 1 21.12 1 32 C0.67 32 0.34 32 0 32 C0 21.44 0 10.88 0 0 Z " fill="#000000" transform="translate(137,9)"/>
<path d="M0 0 C0.66 0 1.32 0 2 0 C3.2890625 1.4609375 3.2890625 1.4609375 4.625 3.375 C5.29402344 4.31472656 5.29402344 4.31472656 5.9765625 5.2734375 C7 7 7 7 7 9 C5.35 8.67 3.7 8.34 2 8 C1.67 6.68 1.34 5.36 1 4 C0.34 4 -0.32 4 -1 4 C-0.67 2.68 -0.34 1.36 0 0 Z " fill="#575556" transform="translate(95,17)"/>
<path d="M0 0 C0.33 0 0.66 0 1 0 C1.22201613 2.9162118 1.42808498 5.83207744 1.625 8.75 C1.68945312 9.575 1.75390625 10.4 1.8203125 11.25 C1.871875 12.04921875 1.9234375 12.8484375 1.9765625 13.671875 C2.02893066 14.4050293 2.08129883 15.13818359 2.13525391 15.89355469 C1.97767085 18.34775441 1.22264839 19.88853213 0 22 C-0.66 22 -1.32 22 -2 22 C-1.84660156 21.35675781 -1.69320312 20.71351562 -1.53515625 20.05078125 C-0.84253326 16.10232463 -0.64199119 12.1868113 -0.4375 8.1875 C-0.39431641 7.39923828 -0.35113281 6.61097656 -0.30664062 5.79882812 C-0.20121679 3.86605785 -0.10016906 1.93304974 0 0 Z " fill="#5D5B5C" transform="translate(92,46)"/>
<path d="M0 0 C-0.66 1.65 -1.32 3.3 -2 5 C-2.99 5 -3.98 5 -5 5 C-5 4.34 -5 3.68 -5 3 C-9.29 2.67 -13.58 2.34 -18 2 C-18 1.67 -18 1.34 -18 1 C-15.37504621 0.83257698 -12.75004205 0.6660283 -10.125 0.5 C-9.00544922 0.42845703 -9.00544922 0.42845703 -7.86328125 0.35546875 C-2.2265625 0 -2.2265625 0 0 0 Z " fill="#514F50" transform="translate(63,78)"/>
<path d="M0 0 C0.33 0 0.66 0 1 0 C1 8.58 1 17.16 1 26 C0.34 25.67 -0.32 25.34 -1 25 C-0.67 16.75 -0.34 8.5 0 0 Z " fill="#000000" transform="translate(156,70)"/>
<path d="M0 0 C0.33 0 0.66 0 1 0 C1 8.91 1 17.82 1 27 C0.67 27 0.34 27 0 27 C0 18.09 0 9.18 0 0 Z " fill="#000000" transform="translate(177,6)"/>
<path d="M0 0 C3 1 3 1 4 3 C4.06996014 4.70702735 4.08440154 6.41668003 4.0625 8.125 C4.05347656 9.03507812 4.04445313 9.94515625 4.03515625 10.8828125 C4.02355469 11.58148438 4.01195313 12.28015625 4 13 C3.67 13 3.34 13 3 13 C3 10.03 3 7.06 3 4 C1.68 4 0.36 4 -1 4 C-1.33 3.01 -1.66 2.02 -2 1 C-1.34 0.67 -0.68 0.34 0 0 Z " fill="#424041" transform="translate(65,61)"/>
<path d="M0 0 C2.64 0.99 5.28 1.98 8 3 C8 3.33 8 3.66 8 4 C1.375 5.25 1.375 5.25 -2 3 C-1.34 3 -0.68 3 0 3 C0 2.01 0 1.02 0 0 Z " fill="#373536" transform="translate(68,13)"/>
<path d="M0 0 C0.66 0.33 1.32 0.66 2 1 C2 3.64 2 6.28 2 9 C1.01 9.33 0.02 9.66 -1 10 C-0.67 6.7 -0.34 3.4 0 0 Z " fill="#000000" transform="translate(111,63)"/>
<path d="M0 0 C0.99 0 1.98 0 3 0 C2.67 1.65 2.34 3.3 2 5 C0.68 5.33 -0.64 5.66 -2 6 C-1.125 1.125 -1.125 1.125 0 0 Z " fill="#242223" transform="translate(94,90)"/>
<path d="M0 0 C0.66 0.66 1.32 1.32 2 2 C1.34 3.32 0.68 4.64 0 6 C-0.99 6 -1.98 6 -3 6 C-3 4.68 -3 3.36 -3 2 C-2.01 1.34 -1.02 0.68 0 0 Z " fill="#2A2829" transform="translate(79,83)"/>
<path d="M0 0 C2.475 0.495 2.475 0.495 5 1 C5 2.65 5 4.3 5 6 C4.01 6.495 4.01 6.495 3 7 C2.34 6.34 1.68 5.68 1 5 C1.33 4.01 1.66 3.02 2 2 C1.34 1.34 0.68 0.68 0 0 Z " fill="#2B2B2B" transform="translate(41,24)"/>
<path d="M0 0 C0 0.99 0 1.98 0 3 C-2.9375 2.625 -2.9375 2.625 -6 2 C-6.33 1.34 -6.66 0.68 -7 0 C-4.3333581 -1.33332095 -2.83319697 -0.67102033 0 0 Z " fill="#232323" transform="translate(41,91)"/>
<path d="M0 0 C0.66 0 1.32 0 2 0 C2 3.63 2 7.26 2 11 C-0.10814567 6.78370866 -0.17700355 4.60209225 0 0 Z " fill="#000000" transform="translate(332,86)"/>
<path d="M0 0 C0.99 0.33 1.98 0.66 3 1 C3 3.97 3 6.94 3 10 C0.70366176 6.55549263 0.45983515 4.06187717 0 0 Z " fill="#1B191A" transform="translate(65,64)"/>
<path d="M0 0 C0.66 0.33 1.32 0.66 2 1 C2.40729228 3.32156597 2.74438677 5.6568787 3 8 C2.01 8 1.02 8 0 8 C-1.125 2.25 -1.125 2.25 0 0 Z " fill="#585657" transform="translate(103,29)"/>
<path d="M0 0 C2.64 0 5.28 0 8 0 C8 0.33 8 0.66 8 1 C5.69 1 3.38 1 1 1 C1 3.64 1 6.28 1 9 C0.67 9 0.34 9 0 9 C0 6.03 0 3.06 0 0 Z " fill="#000000" transform="translate(127,31)"/>
<path d="M0 0 C3.63 0 7.26 0 11 0 C11 0.33 11 0.66 11 1 C7.37 1 3.74 1 0 1 C0 0.67 0 0.34 0 0 Z " fill="#000000" transform="translate(146,61)"/>
<path d="M0 0 C0.33 0 0.66 0 1 0 C1 2.97 1 5.94 1 9 C0.67 9 0.34 9 0 9 C0 6.03 0 3.06 0 0 Z " fill="#000000" transform="translate(355,63)"/>
<path d="M0 0 C0.66 0 1.32 0 2 0 C1.67 1.98 1.34 3.96 1 6 C0.67 6 0.34 6 0 6 C0 4.02 0 2.04 0 0 Z " fill="#393939" transform="translate(107,64)"/>
<path d="M0 0 C2.475 0.495 2.475 0.495 5 1 C5 1.33 5 1.66 5 2 C3.35 2 1.7 2 0 2 C0 1.34 0 0.68 0 0 Z " fill="#000000" transform="translate(227,90)"/>
<path d="M0 0 C0.99 0.33 1.98 0.66 3 1 C3 1.66 3 2.32 3 3 C2.01 3 1.02 3 0 3 C0 2.01 0 1.02 0 0 Z " fill="#000000" transform="translate(198,27)"/>
<path d="M0 0 C0.33 1.32 0.66 2.64 1 4 C0.34 4 -0.32 4 -1 4 C-0.67 2.68 -0.34 1.36 0 0 Z " fill="#585657" transform="translate(105,72)"/>
<path d="M0 0 C0.33 0 0.66 0 1 0 C1 1.65 1 3.3 1 5 C0.67 5 0.34 5 0 5 C0 3.35 0 1.7 0 0 Z " fill="#000000" transform="translate(115,67)"/>
<path d="M0 0 C0.99 1.485 0.99 1.485 2 3 C1.01 3.495 1.01 3.495 0 4 C0 2.68 0 1.36 0 0 Z " fill="#515151" transform="translate(8,18)"/>
<path d="M0 0 C1 4 1 4 1 4 Z " fill="#000000" transform="translate(108,76)"/>
<path d="M0 0 C1 4 1 4 1 4 Z " fill="#000000" transform="translate(201,67)"/>
<path d="M0 0 C1 4 1 4 1 4 Z " fill="#000000" transform="translate(202,63)"/>
<path d="M0 0 C0.99 0.33 1.98 0.66 3 1 C2.01 1 1.02 1 0 1 C0 0.67 0 0.34 0 0 Z " fill="#2A2A2A" transform="translate(10,16)"/>
<path d="M0 0 C0.66 0.66 1.32 1.32 2 2 C1.34 2 0.68 2 0 2 C0 1.34 0 0.68 0 0 Z " fill="#1B1B1B" transform="translate(13,91)"/>
<path d="M0 0 C3 1 3 1 3 1 Z " fill="#373737" transform="translate(35,0)"/>
<path d="M0 0 C2 1 2 1 2 1 Z " fill="#000000" transform="translate(232,90)"/>
<path d="" fill="#A9A9A9" transform="translate(0,0)"/>
<path d="" fill="#AEAEAE" transform="translate(0,0)"/>
<path d="M0 0 C2 1 2 1 2 1 Z " fill="#000000" transform="translate(187,64)"/>
<path d="M0 0 C2 1 2 1 2 1 Z " fill="#000000" transform="translate(181,64)"/>
<path d="M0 0 C2 1 2 1 2 1 Z " fill="#000000" transform="translate(199,26)"/>
<path d="" fill="#000000" transform="translate(0,0)"/>
<path d="M0 0 C2 1 2 1 2 1 Z " fill="#000000" transform="translate(115,8)"/>
<path d="M0 0 C2 1 2 1 2 1 Z " fill="#2A2829" transform="translate(79,4)"/>
<path d="M0 0 C2 1 2 1 2 1 Z " fill="#A0A0A0" transform="translate(27,4)"/>
<path d="" fill="#000000" transform="translate(0,0)"/>
<path d="" fill="#000000" transform="translate(0,0)"/>
<path d="" fill="#4B4B4B" transform="translate(0,0)"/>
<path d="" fill="#2F2F2F" transform="translate(0,0)"/>
<path d="" fill="#000000" transform="translate(0,0)"/>
<path d="" fill="#2E2E2E" transform="translate(0,0)"/>
<path d="" fill="#000000" transform="translate(0,0)"/>
<path d="" fill="#000000" transform="translate(0,0)"/>
<path d="" fill="#292929" transform="translate(0,0)"/>
<path d="" fill="#000000" transform="translate(0,0)"/>
<path d="" fill="#000000" transform="translate(0,0)"/>
<path d="" fill="#000000" transform="translate(0,0)"/>
<path d="" fill="#000000" transform="translate(0,0)"/>
<path d="" fill="#000000" transform="translate(0,0)"/>
<path d="" fill="#000000" transform="translate(0,0)"/>
<path d="" fill="#000000" transform="translate(0,0)"/>
<path d="" fill="#000000" transform="translate(0,0)"/>
<path d="" fill="#000000" transform="translate(0,0)"/>
<path d="" fill="#000000" transform="translate(0,0)"/>
<path d="" fill="#000000" transform="translate(0,0)"/>
<path d="" fill="#000000" transform="translate(0,0)"/>
<path d="" fill="#2C2C2C" transform="translate(0,0)"/>
<path d="" fill="#000000" transform="translate(0,0)"/>
<path d="" fill="#2C2C2C" transform="translate(0,0)"/>
<path d="" fill="#282828" transform="translate(0,0)"/>
<path d="" fill="#000000" transform="translate(0,0)"/>
<path d="" fill="#2C2C2C" transform="translate(0,0)"/>
<path d="" fill="#2E2E2E" transform="translate(0,0)"/>
<path d="" fill="#000000" transform="translate(0,0)"/>
<path d="" fill="#595758" transform="translate(0,0)"/>
<path d="" fill="#7F7D7E" transform="translate(0,0)"/>
<path d="" fill="#A5A3A4" transform="translate(0,0)"/>
<path d="" fill="#272727" transform="translate(0,0)"/>
<path d="" fill="#5A5859" transform="translate(0,0)"/>
</svg>
